<svg width="32" height="32" viewBox="0 0 32 32" fill="none" xmlns="http://www.w3.org/2000/svg">
  <defs>
    <linearGradient id="gradient" x1="0%" y1="0%" x2="100%" y2="100%">
      <stop offset="0%" style="stop-color:#10b981"/>
      <stop offset="100%" style="stop-color:#0d9488"/>
    </linearGradient>
  </defs>
  <rect width="32" height="32" rx="8" fill="url(#gradient)"/>
  <path d="M16 7L17.5 12.5L23 14L17.5 15.5L16 21L14.5 15.5L9 14L14.5 12.5L16 7Z" fill="white"/>
  <path d="M22 18L22.75 20.25L25 21L22.75 21.75L22 24L21.25 21.75L19 21L21.25 20.25L22 18Z" fill="white" fill-opacity="0.8"/>
  <path d="M10 17L10.5 18.5L12 19L10.5 19.5L10 21L9.5 19.5L8 19L9.5 18.5L10 17Z" fill="white" fill-opacity="0.6"/>
</svg>

